<?xml version="1.0" encoding="utf-8"?>
<!-- Generator: Adobe Illustrator 17.1.0, SVG Export Plug-In . SVG Version: 6.00 Build 0)  -->
<!DOCTYPE svg PUBLIC "-//W3C//DTD SVG 1.1//EN" "http://www.w3.org/Graphics/SVG/1.1/DTD/svg11.dtd">
<svg version="1.1" id="Layer_1" xmlns="http://www.w3.org/2000/svg" xmlns:xlink="http://www.w3.org/1999/xlink" x="0px" y="0px"
	 viewBox="0 0 240 106" enable-background="new 0 0 240 106" xml:space="preserve">
<g>
	<path fill-rule="evenodd" clip-rule="evenodd" d="M30.75,28.53c3.713,0,8.006-0.928,12.88-2.783v11.945
		c-1.083,0.386-2.63,0.812-4.642,1.276c0.619,1.778,0.928,3.44,0.928,4.987c0,4.948-1.489,9.258-4.467,12.931
		c-2.978,3.672-6.827,5.857-11.546,6.553c-3.094,0.464-4.641,2.126-4.641,4.987c0,1.005,0.503,2.01,1.508,3.015
		c1.315,1.469,3.249,2.398,5.802,2.784c11.063,1.7,16.593,6.301,16.593,13.8c0,11.984-7.156,17.977-21.467,17.977
		c-5.879,0-10.714-1.044-14.505-3.132C2.398,100.24,0,96.103,0,90.459c0-6.494,3.597-10.94,10.791-13.336v-0.232
		c-2.63-1.624-3.945-4.098-3.945-7.422c0-4.33,1.238-7.036,3.713-8.118v-0.232c-2.476-0.851-4.681-2.784-6.614-5.799
		c-2.166-3.247-3.249-6.726-3.249-10.438c0-5.567,1.973-10.205,5.918-13.917c3.791-3.479,8.316-5.219,13.577-5.219
		C23.981,25.746,27.501,26.674,30.75,28.53L30.75,28.53z M31.214,89.531c0-3.943-3.249-5.914-9.747-5.914
		c-6.266,0-9.399,2.049-9.399,6.147c0,4.02,3.404,6.03,10.211,6.03C28.236,95.794,31.214,93.707,31.214,89.531L31.214,89.531z
		 M13.344,44.998c0,5.335,2.437,8.002,7.31,8.002c4.719,0,7.078-2.706,7.078-8.118c0-2.242-0.542-4.175-1.624-5.799
		c-1.315-1.778-3.133-2.667-5.454-2.667C15.781,36.415,13.344,39.277,13.344,44.998L13.344,44.998z M13.344,44.998"/>
	<path fill-rule="evenodd" clip-rule="evenodd" d="M55.934,17.28c-2.243,0-4.158-0.85-5.744-2.551
		c-1.586-1.701-2.379-3.711-2.379-6.031c0-2.397,0.793-4.445,2.379-6.147C51.777,0.851,53.691,0,55.934,0
		c2.166,0,4.042,0.851,5.628,2.551c1.586,1.701,2.379,3.75,2.379,6.147c0,2.32-0.793,4.33-2.379,6.031
		C59.977,16.43,58.101,17.28,55.934,17.28L55.934,17.28z M55.934,17.28"/>
	<path fill-rule="evenodd" clip-rule="evenodd" d="M49.321,77.818c0.155-1.546,0.232-4.174,0.232-7.886V33.864
		c0-3.634-0.077-6.147-0.232-7.538h13.112c-0.155,1.469-0.232,3.905-0.232,7.307v35.604c0,3.943,0.077,6.804,0.232,8.582H49.321z
		 M49.321,77.818"/>
	<path fill-rule="evenodd" clip-rule="evenodd" d="M86.444,26.326h10.095v11.249c-0.387,0-1.102-0.038-2.147-0.116
		c-1.044-0.077-2.031-0.116-2.959-0.116h-4.99v21.571c0,5.18,1.702,7.77,5.106,7.77c2.398,0,4.564-0.656,6.498-1.971V76.31
		c-2.862,1.547-6.305,2.32-10.328,2.32c-5.647,0-9.553-2.01-11.72-6.03c-1.624-3.016-2.437-7.77-2.437-14.265V37.575h0.116v-0.232
		l-1.741-0.116c-1.006,0-2.321,0.116-3.945,0.348V26.326h5.686v-4.523c0-2.165-0.116-3.905-0.348-5.219h13.46
		c-0.232,1.469-0.348,3.132-0.348,4.987V26.326z M86.444,26.326"/>
	<path fill-rule="evenodd" clip-rule="evenodd" d="M127.202,25.978c-3.326,0-6.807,1.16-10.443,3.479V9.162
		c0-4.407,0.078-7.306,0.232-8.698h-13.228c0.232,1.237,0.348,4.136,0.348,8.698v61.35c0,3.556-0.116,5.992-0.348,7.306h13.461
		c0-0.232-0.077-1.179-0.232-2.841c-0.154-1.662-0.232-3.151-0.232-4.465v-28.53c2.708-2.551,5.338-3.827,7.891-3.827
		c2.94,0,5.183,1.469,6.73,4.406c1.16,2.32,1.741,5.219,1.741,8.698l-0.116,15.656c0,2.63-0.193,6.263-0.58,10.902h14.04
		c-0.309-1.932-0.464-5.489-0.464-10.67V51.26c0-6.727-1.508-12.448-4.526-17.164C138.071,28.684,133.314,25.978,127.202,25.978
		L127.202,25.978z M127.202,25.978"/>
	<path fill-rule="evenodd" clip-rule="evenodd" d="M168.284,78.282c-6.112,0-10.637-2.706-13.577-8.119
		c-2.321-4.406-3.481-10.167-3.481-17.279V36.996c0-5.258-0.155-8.814-0.464-10.67h13.924c-0.232,1.701-0.387,5.335-0.464,10.902
		l-0.116,15.656c0,4.406,0.503,7.577,1.508,9.509c1.161,2.397,3.288,3.596,6.382,3.596c2.166,0,4.603-1.276,7.311-3.827v-28.53
		c0-1.315-0.078-2.822-0.232-4.523c-0.155-1.701-0.232-2.629-0.232-2.783h13.46c-0.154,1.314-0.232,3.75-0.232,7.307v35.488
		c0,4.561,0.078,7.46,0.232,8.698h-12.648v-4.174C176.097,76.735,172.307,78.282,168.284,78.282L168.284,78.282z M168.284,78.282"/>
	<path fill-rule="evenodd" clip-rule="evenodd" d="M220.506,78.166c-4.177,0-7.658-1.507-10.443-4.522v4.174h-12.3
		c0.232-1.314,0.349-3.75,0.349-7.306V9.162c0-4.562-0.117-7.461-0.349-8.698h13.229c-0.155,1.392-0.232,4.291-0.232,8.698v20.179
		c3.558-2.242,7.04-3.364,10.443-3.364c6.111,0,10.908,2.706,14.389,8.118C238.53,38.812,240,44.534,240,51.26
		c0,6.881-1.547,12.873-4.641,17.976C231.646,75.189,226.694,78.166,220.506,78.166L220.506,78.166z M218.766,38.155
		c-2.553,0-5.222,1.275-8.007,3.827v20.063c2.476,2.396,4.912,3.596,7.31,3.596c3.017,0,5.299-1.662,6.847-4.987
		c1.238-2.629,1.857-5.76,1.857-9.394C226.772,42.524,224.103,38.155,218.766,38.155L218.766,38.155z M218.766,38.155"/>
	<g opacity="0.8">
		<path d="M58.36,88.934c-0.736-0.998-1.683-1.629-2.971-1.629c-1.236,0-2.419,0.947-2.419,2.234c0,3.337,7.861,1.944,7.861,8.593
			c0,3.969-2.472,6.78-6.521,6.78c-2.735,0-4.733-1.576-6.1-3.863l2.498-2.444c0.526,1.525,1.919,2.891,3.576,2.891
			c1.577,0,2.55-1.34,2.55-2.865c0-2.05-1.893-2.628-3.444-3.232c-2.551-1.052-4.418-2.339-4.418-5.413
			c0-3.285,2.446-5.939,5.785-5.939c1.761,0,4.207,0.867,5.416,2.207L58.36,88.934z"/>
		<path d="M71.715,104.912c-6.048,0-9.808-4.625-9.808-10.459c0-5.886,3.892-10.406,9.808-10.406c5.916,0,9.807,4.519,9.807,10.406
			C81.522,100.286,77.762,104.912,71.715,104.912z M71.715,87.857c-3.655,0-5.811,3.232-5.811,6.438
			c0,3.048,1.525,6.806,5.811,6.806c4.286,0,5.81-3.758,5.81-6.806C77.525,91.089,75.369,87.857,71.715,87.857z"/>
		<path d="M96.663,89.828c-1.078-1.314-2.708-2.102-4.365-2.102c-3.708,0-5.837,3.416-5.837,6.833c0,3.337,2.209,6.674,5.811,6.674
			c1.657,0,3.313-0.867,4.391-2.101v4.598c-1.446,0.684-2.892,1.183-4.496,1.183c-5.574,0-9.702-4.808-9.702-10.274
			c0-5.624,3.97-10.59,9.781-10.59c1.551,0,3.076,0.421,4.417,1.156V89.828z"/>
		<path d="M103.076,104.386h-3.865V84.572h3.865V104.386z"/>
		<path d="M109.937,100.208l-1.63,4.178h-4.075l7.73-20.339h2.997l7.52,20.339h-4.128l-1.525-4.178H109.937z M113.276,89.854h-0.052
			l-2.183,7.201h4.707L113.276,89.854z"/>
		<path d="M127.524,101.023h5.469v3.364h-9.334V84.572h3.865V101.023z"/>
		<path d="M155.075,89.828c-1.078-1.314-2.708-2.102-4.365-2.102c-3.708,0-5.837,3.416-5.837,6.833c0,3.337,2.209,6.674,5.811,6.674
			c1.657,0,3.313-0.867,4.391-2.101v4.598c-1.446,0.684-2.892,1.183-4.496,1.183c-5.574,0-9.702-4.808-9.702-10.274
			c0-5.624,3.97-10.59,9.781-10.59c1.551,0,3.076,0.421,4.417,1.156V89.828z"/>
		<path d="M166.484,104.912c-6.047,0-9.807-4.625-9.807-10.459c0-5.886,3.892-10.406,9.807-10.406c5.916,0,9.807,4.519,9.807,10.406
			C176.291,100.286,172.531,104.912,166.484,104.912z M166.484,87.857c-3.655,0-5.811,3.232-5.811,6.438
			c0,3.048,1.525,6.806,5.811,6.806c4.286,0,5.811-3.758,5.811-6.806C172.295,91.089,170.138,87.857,166.484,87.857z"/>
		<path d="M178.18,84.572h5.522c5.731,0,9.57,4.283,9.57,9.933c0,5.572-3.944,9.881-9.597,9.881h-5.495V84.572z M182.046,101.023
			h0.631c4.759,0,6.6-2.628,6.6-6.544c0-4.309-2.208-6.543-6.6-6.543h-0.631V101.023z"/>
		<path d="M199.028,104.386h-3.866V84.572h3.866V104.386z"/>
		<path d="M201.839,84.047h2.787l10.439,13.849h0.052V84.572h3.865v20.208h-2.786l-10.439-13.849h-0.052v13.455h-3.866V84.047z"/>
		<path d="M239.303,93.849v0.499c0,5.597-2.866,10.564-9.018,10.564c-5.785,0-9.44-4.887-9.44-10.353
			c0-5.65,3.76-10.511,9.676-10.511c3.365,0,6.31,1.708,7.836,4.73l-3.418,1.839c-0.789-1.787-2.472-3.153-4.523-3.153
			c-3.734,0-5.574,3.81-5.574,7.095c0,3.284,1.866,6.937,5.6,6.937c2.419,0,4.444-2.102,4.523-4.494h-4.207v-3.153H239.303z"/>
	</g>
</g>
</svg>
